<?xml version="1.0" encoding="UTF-8" standalone="no"?>
<!-- Created with Inkscape (http://www.inkscape.org/) -->

<svg
   xmlns:dc="http://purl.org/dc/elements/1.1/"
   xmlns:cc="http://creativecommons.org/ns#"
   xmlns:rdf="http://www.w3.org/1999/02/22-rdf-syntax-ns#"
   xmlns:svg="http://www.w3.org/2000/svg"
   xmlns="http://www.w3.org/2000/svg"
   xmlns:sodipodi="http://sodipodi.sourceforge.net/DTD/sodipodi-0.dtd"
   xmlns:inkscape="http://www.inkscape.org/namespaces/inkscape"
   width="111.52799mm"
   height="48.895485mm"
   viewBox="0 0 395.17793 173.25172"
   id="svg9106"
   version="1.1"
   inkscape:version="0.91 r13725"
   sodipodi:docname="lewis-logo.svg"
   inkscape:export-xdpi="45.549999"
   inkscape:export-ydpi="45.549999">
  <defs
     id="defs9108" />
  <sodipodi:namedview
     id="base"
     pagecolor="#ffffff"
     bordercolor="#666666"
     borderopacity="1.0"
     inkscape:pageopacity="0.0"
     inkscape:pageshadow="2"
     inkscape:zoom="1.52"
     inkscape:cx="65.847475"
     inkscape:cy="55.045219"
     inkscape:document-units="px"
     inkscape:current-layer="text9920"
     showgrid="false"
     showguides="true"
     inkscape:guide-bbox="true"
     inkscape:snap-center="true"
     inkscape:window-width="1440"
     inkscape:window-height="799"
     inkscape:window-x="133"
     inkscape:window-y="247"
     inkscape:window-maximized="0"
     fit-margin-top="0"
     fit-margin-left="0"
     fit-margin-right="0"
     fit-margin-bottom="0"
     inkscape:object-nodes="true">
    <sodipodi:guide
       position="27.786764,86.62588"
       orientation="0,1"
       id="guide9918" />
  </sodipodi:namedview>
  <metadata
     id="metadata9111">
    <rdf:RDF>
      <cc:Work
         rdf:about="">
        <dc:format>image/svg+xml</dc:format>
        <dc:type
           rdf:resource="http://purl.org/dc/dcmitype/StillImage" />
        <dc:title />
      </cc:Work>
    </rdf:RDF>
  </metadata>
  <g
     inkscape:label="Layer 1"
     inkscape:groupmode="layer"
     id="layer1"
     transform="translate(-176.68287,-385.73635)">
    <path
       style="fill:none;fill-opacity:1;stroke:#000000;stroke-width:3;stroke-miterlimit:4;stroke-dasharray:none;stroke-dashoffset:0;stroke-opacity:1"
       id="path4138-1-8"
       sodipodi:type="arc"
       sodipodi:cx="509.49002"
       sodipodi:cy="472.36221"
       sodipodi:rx="60.871067"
       sodipodi:ry="60.871399"
       sodipodi:start="3.8112417"
       sodipodi:end="2.0565141"
       sodipodi:open="true"
       d="m 461.7647,434.57867 a 60.871067,60.871399 0 0 1 82.51344,-12.16744 60.871067,60.871399 0 0 1 17.20028,81.61333 60.871067,60.871399 0 0 1 -80.40565,22.16867"
       inkscape:transform-center-x="-9.5999122" />
    <circle
       style="fill:#4975af;fill-opacity:1;stroke:#000000;stroke-width:3;stroke-miterlimit:4;stroke-dasharray:none;stroke-dashoffset:0;stroke-opacity:1"
       id="path4138-1"
       cx="398.90094"
       cy="472.36221"
       r="85.125862" />
    <circle
       style="fill:#000000;fill-opacity:1;stroke:#000000;stroke-width:2;stroke-miterlimit:4;stroke-dasharray:none;stroke-dashoffset:0;stroke-opacity:1"
       id="path4138-1-7"
       cx="204.46964"
       cy="472.36221"
       r="26.786764" />
    <path
       style="fill:none;fill-rule:evenodd;stroke:#000000;stroke-width:3.00000024;stroke-linecap:butt;stroke-linejoin:miter;stroke-miterlimit:4;stroke-dasharray:none;stroke-opacity:1"
       d="m 231.25642,472.36221 76.04866,0"
       id="path7236"
       inkscape:connector-curvature="0"
       sodipodi:nodetypes="cc" />
    <g
       style="font-style:normal;font-variant:normal;font-weight:normal;font-stretch:normal;font-size:50px;line-height:125%;font-family:Rubik;-inkscape-font-specification:'Rubik, Normal';text-align:start;letter-spacing:0px;word-spacing:0px;writing-mode:lr-tb;text-anchor:start;fill:#000000;fill-opacity:1;stroke:none;stroke-width:1px;stroke-linecap:butt;stroke-linejoin:miter;stroke-opacity:1"
       id="text9920">
      <path
         d="m 354.51852,485.36221 q 0.55,0 0.95,0.4 0.4,0.4 0.4,0.95 l 0,1.8 q 0,0.55 -0.4,0.95 -0.4,0.4 -0.95,0.4 l -20.35,0 q -0.55,0 -0.95,-0.4 -0.4,-0.4 -0.4,-0.95 l 0,-32.3 q 0,-0.55 0.4,-0.95 0.4,-0.4 0.95,-0.4 l 2.05,0 q 0.55,0 0.95,0.4 0.4,0.4 0.4,0.95 l 0,29.15 16.95,0 z"
         style="font-style:normal;font-variant:normal;font-weight:normal;font-stretch:normal;font-size:50px;line-height:125%;font-family:Rubik;-inkscape-font-specification:'Rubik, Normal';text-align:start;writing-mode:lr-tb;text-anchor:start;fill:#ffffff"
         id="path5420" />
      <path
         d="m 370.35056,463.36221 q 5.35,0 8.45,3.4 3.1,3.4 3.1,9.25 l 0,1.35 q 0,0.55 -0.4,0.95 -0.4,0.4 -0.95,0.4 l -17.2,0 0,0.3 q 0.1,3.3 2,5.2 1.95,1.85 5,1.85 2.5,0 3.85,-0.65 1.4,-0.65 2.5,-1.85 0.4,-0.4 0.7,-0.55 0.35,-0.15 0.9,-0.15 l 1.5,0 q 0.6,0 1,0.4 0.4,0.4 0.35,0.95 -0.2,1.35 -1.5,2.8 -1.25,1.4 -3.65,2.4 -2.35,0.95 -5.65,0.95 -3.2,0 -5.7,-1.45 -2.5,-1.5 -4,-4.1 -1.45,-2.6 -1.75,-5.85 -0.1,-1.5 -0.1,-2.3 0,-0.8 0.1,-2.3 0.3,-3.1 1.75,-5.6 1.5,-2.5 3.95,-3.95 2.5,-1.45 5.75,-1.45 z m 7.05,11.15 0,-0.15 q 0,-3.05 -1.95,-4.85 -1.9,-1.85 -5.1,-1.85 -2.9,0 -4.95,1.85 -2,1.85 -2.05,4.85 l 0,0.15 14.05,0 z"
         style="font-style:normal;font-variant:normal;font-weight:normal;font-stretch:normal;font-size:50px;line-height:125%;font-family:Rubik;-inkscape-font-specification:'Rubik, Normal';text-align:start;writing-mode:lr-tb;text-anchor:start;fill:#ffffff"
         id="path5422" />
      <path
         d="m 411.15368,483.86221 5.1,-27.65 q 0.15,-0.7 0.55,-1 0.45,-0.35 1,-0.35 l 2,0 q 0.45,0 0.75,0.35 0.35,0.3 0.35,0.75 l -0.05,0.4 -6.15,30.9 q -0.3,1.35 -0.8,2 -0.5,0.6 -1.65,0.6 l -2,0 q -1.1,0 -1.65,-0.65 -0.55,-0.7 -0.9,-1.95 l -4.6,-16.7 -4.6,16.7 q -0.35,1.25 -0.9,1.95 -0.55,0.65 -1.65,0.65 l -2,0 q -1.15,0 -1.65,-0.6 -0.5,-0.65 -0.8,-2 l -6.15,-30.9 -0.05,-0.4 q 0,-0.45 0.3,-0.75 0.35,-0.35 0.8,-0.35 l 2,0 q 0.55,0 0.95,0.35 0.45,0.3 0.6,1 l 5.1,27.65 5.5,-19.8 q 0.1,-0.5 0.5,-0.95 0.4,-0.5 1.2,-0.5 l 1.7,0 q 0.8,0 1.2,0.5 0.4,0.45 0.5,0.95 l 5.5,19.8 z"
         style="font-style:normal;font-variant:normal;font-weight:normal;font-stretch:normal;font-size:50px;line-height:125%;font-family:Rubik;-inkscape-font-specification:'Rubik, Normal';text-align:start;writing-mode:lr-tb;text-anchor:start;fill:#ffffff"
         id="path5424" />
      <path
         d="m 428.50446,489.86221 q -0.55,0 -0.95,-0.4 -0.4,-0.4 -0.4,-0.95 l 0,-32.3 q 0,-0.55 0.4,-0.95 0.4,-0.4 0.95,-0.4 l 2.05,0 q 0.55,0 0.95,0.4 0.4,0.4 0.4,0.95 l 0,32.3 q 0,0.55 -0.4,0.95 -0.4,0.4 -0.95,0.4 l -2.05,0 z"
         style="font-style:normal;font-variant:normal;font-weight:normal;font-stretch:normal;font-size:50px;line-height:125%;font-family:Rubik;-inkscape-font-specification:'Rubik, Normal';text-align:start;writing-mode:lr-tb;text-anchor:start;fill:#ffffff"
         id="path5426" />
      <path
         d="m 463.98337,463.41221 q 0.05,0.45 -0.3,0.8 -0.35,0.3 -0.8,0.3 l -2.05,0 q -0.6,0 -0.9,-0.2 -0.3,-0.25 -0.65,-0.9 -0.8,-1.55 -2.8,-3.05 -1.95,-1.5 -5.2,-1.5 -3,0 -5.1,1.35 -2.05,1.35 -2.05,3.85 0,1.7 1,2.8 1.05,1.05 3.1,1.85 2.1,0.75 6.3,1.85 5.7,1.5 8.05,3.7 2.4,2.15 2.4,5.9 0,3 -1.7,5.3 -1.65,2.3 -4.7,3.6 -3.05,1.3 -7.05,1.3 -3.7,0 -6.75,-1.4 -3.05,-1.4 -4.8,-3.55 -1.75,-2.2 -1.85,-4.35 0,-0.45 0.3,-0.75 0.35,-0.35 0.8,-0.35 l 2.05,0 q 0.55,0 0.9,0.25 0.35,0.2 0.65,0.85 0.8,1.8 2.9,3.3 2.15,1.5 5.8,1.5 3.65,0 6.15,-1.55 2.55,-1.6 2.55,-4.15 0,-1.65 -1.35,-2.75 -1.3,-1.15 -3.6,-1.9 -2.3,-0.8 -6.75,-1.95 -4.85,-1.25 -7,-3.6 -2.15,-2.4 -2.15,-5.9 0,-2.6 1.35,-4.8 1.35,-2.2 4.05,-3.55 2.7,-1.35 6.5,-1.35 3.8,0 6.65,1.5 2.85,1.45 4.4,3.6 1.55,2.15 1.65,3.95 z"
         style="font-style:normal;font-variant:normal;font-weight:normal;font-stretch:normal;font-size:50px;line-height:125%;font-family:Rubik;-inkscape-font-specification:'Rubik, Normal';text-align:start;writing-mode:lr-tb;text-anchor:start;fill:#ffffff"
         id="path5428" />
    </g>
    <path
       id="path10178-3-0"
       style="fill:#ffffff;fill-opacity:1;fill-rule:evenodd;stroke:#000000;stroke-width:3.00000048;stroke-linecap:round;stroke-linejoin:miter;stroke-miterlimit:4;stroke-dasharray:none;stroke-opacity:1"
       d="m 285.88031,458.58137 23.86914,13.78085 -23.86914,13.78087 z"
       inkscape:connector-curvature="0"
       sodipodi:nodetypes="cccc" />
    <path
       id="path10178-3-0-0"
       style="fill:#ffffff;fill-opacity:1;fill-rule:evenodd;stroke:#000000;stroke-width:3.00000048;stroke-linecap:round;stroke-linejoin:miter;stroke-miterlimit:4;stroke-dasharray:none;stroke-opacity:1"
       d="m 474.39831,520.55043 27.4767,-2.16323 -11.8649,24.87713 z"
       inkscape:connector-curvature="0"
       sodipodi:nodetypes="cccc" />
  </g>
</svg>
